<svg xmlns="http://www.w3.org/2000/svg" xmlns:xlink="http://www.w3.org/1999/xlink" viewBox="0 0 1361.63 1361.63">
	<defs>
		<style>
			.cls-1,.cls-2,.cls-3,.cls-4{stroke:#000;stroke-miterlimit:10;}.cls-1{fill:url(#渐变);}.cls-2,.cls-5{fill:#fff;}.cls-2,.cls-3,.cls-4{stroke-width:60px;}.cls-3{fill:#0071bc;}.cls-4{fill:#29abe2;}.cls-6{fill:#ffdd7d;}
		</style>
		<!--<linearGradient id="渐变" x1="0.5" y1="0.5" x2="1361.13" y2="1361.13" gradientUnits="userSpaceOnUse">
			<stop offset="0" stop-color="#29abe2"/>
			<stop offset="1" stop-color="#662d91"/>
		</linearGradient>-->
	</defs>
	<title>mimi-captcha</title>
	<g id="图层_1" data-name="图层 1">
		<path class="cls-2" d="M682.69,0" transform="translate(0.5 0.5)"/>
		<path class="cls-2" d="M682.69,1360.63" transform="translate(0.5 0.5)"/>
		<path class="cls-4" d="M690.22,58.48c59.06,0,67.39,11.21,78.11,22.54.6.64,1,1.48,1.62,2.14,57.28,64.53,130.28,106.22,208.71,119.17l218.41,36.06V629.33c12.58,419.18-118.71,485.22-308.34,603.12,0,0-141.35,87-197,87" transform="translate(0.5 0.5)"/>
		<path class="cls-2" d="M682.69,0" transform="translate(0.5 0.5)"/>
		<path class="cls-2" d="M682.69,0" transform="translate(0.5 0.5)"/>
	</g>
	<g id="图层_2" data-name="图层 2">
		<path class="cls-2" d="M690.48,0" transform="translate(0.5 0.5)"/>
		<path class="cls-2" d="M690.48,1360.63" transform="translate(0.5 0.5)"/>
		<path class="cls-3" d="M697.14,58.48c-59.06,0-69.81,11.21-80.52,22.54-.6.64-1,1.48-1.62,2.14-57.28,64.53-130.28,106.22-208.71,119.17L187.88,238.39V629.33c-12.58,419.18,118.71,485.22,308.34,603.12,0,0,141.35,87,197,87" transform="translate(0.5 0.5)"/>
		<path class="cls-2" d="M690.48,0" transform="translate(0.5 0.5)"/>
		<path class="cls-2" d="M690.48,0" transform="translate(0.5 0.5)"/>
	</g>
	<g id="图层_3" data-name="图层 3">
		<path class="cls-5" d="M474,921.19a359.29,359.29,0,0,1-25.61-26.35c-4-4.62-7.93-9.35-11.74-14.15-3.66-4.6,4.47,5.92.94,1.22-.92-1.23-1.85-2.45-2.76-3.69q-2.74-3.71-5.37-7.48a352.52,352.52,0,0,1-35.7-64.8l3,7.17A353.44,353.44,0,0,1,372.84,725l1.07,8a359.12,359.12,0,0,1,0-94.22l-1.07,8a353.44,353.44,0,0,1,23.94-88.08l-3,7.17a353.07,353.07,0,0,1,35.7-64.8q2.64-3.78,5.37-7.48c.91-1.23,1.84-2.46,2.76-3.69,3.16-4.23-4.47,5.63-.94,1.22,3.83-4.79,7.7-9.54,11.74-14.15A359.29,359.29,0,0,1,474,450.57c11.51-10.72,11.65-31.73,0-42.43-12.33-11.32-30.14-11.44-42.43,0-58.07,54.06-99.24,127.14-113.81,205.26-15.56,83.45-3.77,169.52,34.58,245.33a377.15,377.15,0,0,0,79.22,104.88c11.49,10.7,31.2,12.23,42.43,0,10.67-11.62,12.27-31,0-42.43Z" transform="translate(0.5 0.5)"/>
		<path class="cls-5" d="M906.95,450.57a359.29,359.29,0,0,1,25.61,26.35c4,4.62,7.93,9.35,11.75,14.15,3.66,4.6-4.47-5.92-.94-1.22.92,1.23,1.85,2.45,2.76,3.69q2.74,3.71,5.37,7.48a352.52,352.52,0,0,1,35.7,64.8l-3-7.17a353.44,353.44,0,0,1,23.94,88.08l-1.07-8a359.12,359.12,0,0,1,0,94.22l1.07-8a353.44,353.44,0,0,1-23.94,88.08l3-7.17a353.07,353.07,0,0,1-35.7,64.8q-2.64,3.78-5.37,7.48c-.91,1.23-1.84,2.46-2.76,3.69-3.16,4.23,4.47-5.63.94-1.22-3.83,4.79-7.7,9.54-11.74,14.15a359.29,359.29,0,0,1-25.61,26.35c-11.51,10.72-11.65,31.73,0,42.43,12.33,11.32,30.14,11.44,42.43,0,58.07-54.06,99.24-127.14,113.81-205.26,15.56-83.45,3.77-169.52-34.59-245.33a377.15,377.15,0,0,0-79.22-104.89c-11.49-10.7-31.2-12.23-42.43,0-10.67,11.62-12.27,31,0,42.43Z" transform="translate(0.5 0.5)"/>
		<path class="cls-5" d="M431.58,450.57l23.64,25.52L512,537.36l68.68,74.13,59.36,64.07c9.58,10.34,18.92,21,28.79,31.07l.43.46c10.69,11.54,31.75,11.63,42.43,0,11.34-12.35,11.41-30.12,0-42.43l-23.64-25.52-56.78-61.28-68.68-74.13-59.36-64.07c-9.58-10.34-18.92-21-28.79-31.07l-.43-.46c-10.69-11.54-31.75-11.63-42.43,0-11.34,12.35-11.41,30.12,0,42.43Z" transform="translate(0.5 0.5)"/>
		<path class="cls-5" d="M906.95,408.14,883.3,433.66l-56.77,61.28-68.68,74.13-59.36,64.07c-9.59,10.35-19.35,20.57-28.79,31.07l-.43.46c-10.67,11.51-12.25,31.18,0,42.43,11.6,10.65,31,12.3,42.43,0l23.64-25.52,56.77-61.28,68.68-74.13,59.36-64.07c9.59-10.35,19.35-20.57,28.79-31.07l.43-.46c10.67-11.51,12.25-31.18,0-42.43-11.6-10.65-31-12.3-42.43,0Z" transform="translate(0.5 0.5)"/>
	</g>
	<g id="图层_4" data-name="图层 4">
		<path class="cls-6" d="M841.05,820.14a247.62,247.62,0,0,1-31.44,28.95l7.29-5.63a243.42,243.42,0,0,1-51.68,30.18l8.6-3.63a241.93,241.93,0,0,1-60.51,16.66l9.57-1.29a245.44,245.44,0,0,1-64.31.07l9.57,1.29A241.11,241.11,0,0,1,607.23,870l8.6,3.63a242.53,242.53,0,0,1-52.16-30.52l7.29,5.63a244,244,0,0,1-43.38-43.38l5.63,7.29a242.53,242.53,0,0,1-30.52-52.16l3.63,8.6a241.11,241.11,0,0,1-16.68-60.91l1.29,9.57a245.09,245.09,0,0,1,0-63.82l-1.29,9.57a241.11,241.11,0,0,1,16.68-60.91l-3.63,8.6a242.53,242.53,0,0,1,30.52-52.16l-5.63,7.29A244,244,0,0,1,571,523l-7.29,5.63a242.53,242.53,0,0,1,52.16-30.52l-8.6,3.63A241.11,241.11,0,0,1,668.14,485l-9.57,1.29a245.43,245.43,0,0,1,64.38.07l-9.57-1.29a242.08,242.08,0,0,1,59.19,16.12L764,497.6a243.23,243.23,0,0,1,53.18,30.89l-7.29-5.63a248.34,248.34,0,0,1,29.39,26.8c12.89,13.79,38.06,14,50.91,0,13.56-14.77,13.75-36.2,0-50.91-32-34.25-72.91-59.66-117.49-74-44.21-14.19-91.75-15.76-137.16-7-77.54,15-147.17,67.05-184.91,136.24a278.87,278.87,0,0,0-33.47,119.2c-2.24,42.63,6.63,84.6,23.39,123.61,31.25,72.74,96.5,128.78,172,151.43,42.94,12.87,88.61,14.13,132.49,5.72,46.35-8.88,89.22-31.26,125-61.72A244.58,244.58,0,0,0,892,871.05c12.7-13.9,14.77-37.35,0-50.91-13.84-12.7-37.34-14.85-50.91,0Z" transform="translate(0.5 0.5)"/>
	</g>
</svg>
